<?xml version="1.0" encoding="utf-8"?>
<!-- Generator: Adobe Illustrator 24.2.3, SVG Export Plug-In . SVG Version: 6.00 Build 0)  -->
<svg version="1.1" id="Layer_1" xmlns="http://www.w3.org/2000/svg" xmlns:xlink="http://www.w3.org/1999/xlink" x="0px" y="0px"
	 viewBox="0 0 42 42" style="enable-background:new 0 0 42 42;" xml:space="preserve">
<style type="text/css">
	.st0{fill:#001E36;}
	.st1{fill:#31A8FF;}
	.st2{fill:#330000;}
	.st3{fill:#FF9A00;}
	.st4{fill:#00005B;}
	.st5{fill:#02C1CA;}
	.st6{fill:#742BEA;}
	.st7{fill:#06BACD;}
	.st8{fill:#1AA3CE;}
	.st9{fill:#5836F6;}
	.st10{fill:#4258EB;}
	.st11{fill:#2696D4;}
	.st12{fill:#238BDC;}
	.st13{fill:#327CDD;}
	.st14{fill:#5E4EE1;}
	.st15{fill:#3A79DA;}
	.st16{fill:#3583D7;}
	.st17{fill:#13A9D2;}
	.st18{fill:#4471D9;}
	.st19{fill:#5957DE;}
	.st20{fill:#387FD7;}
	.st21{fill:#FEFEFE;}
	.st22{fill:#5458E1;}
	.st23{fill:#3081DB;}
	.st24{fill:#2989DA;}
	.st25{fill:#16A3D5;}
	.st26{fill:#4172DA;}
	.st27{fill:#298ED6;}
	.st28{fill:#9999FF;}
</style>
<rect y="-0.1" class="st4" width="42" height="42.2"/>
<g>
	<path class="st4" d="M7.6,0.7h26.9c4.1,0,7.4,3.3,7.4,7.4v25.9c0,4.1-3.3,7.4-7.4,7.4H7.6c-4.1,0-7.4-3.3-7.4-7.4V8.1
		C0.2,4,3.5,0.7,7.6,0.7z"/>
	<path class="st28" d="M16.9,25h-6.5l-1.3,4.1c0,0.2-0.2,0.3-0.3,0.3H5.5c-0.2,0-0.3-0.1-0.2-0.3l5.6-16c0.1-0.2,0.1-0.3,0.2-0.5
		c0.1-0.4,0.1-0.8,0.1-1.1c0-0.1,0.1-0.2,0.1-0.2c0,0,0,0,0,0h4.4c0.1,0,0.2,0,0.2,0.1L22.4,29c0.1,0.2,0,0.3-0.2,0.3h-3.6
		c-0.1,0-0.2-0.1-0.3-0.2L16.9,25z M11.5,21.5h4.4c-0.1-0.4-0.2-0.8-0.4-1.3c-0.1-0.5-0.3-1-0.5-1.5l-0.5-1.6
		c-0.2-0.5-0.3-1-0.5-1.5c-0.1-0.5-0.3-0.9-0.4-1.4h0c-0.2,0.8-0.4,1.5-0.6,2.2c-0.3,0.8-0.5,1.7-0.8,2.6C12,20,11.7,20.8,11.5,21.5
		L11.5,21.5z"/>
	<path class="st28" d="M32.7,23.4h-5.5c0.1,0.5,0.2,1.1,0.5,1.5c0.3,0.5,0.8,0.8,1.3,1c0.7,0.3,1.5,0.5,2.2,0.4
		c0.6,0,1.2-0.1,1.8-0.2c0.5-0.1,1.1-0.2,1.5-0.4c0.1-0.1,0.1,0,0.1,0.1v2.7c0,0.1,0,0.3-0.2,0.3c-0.6,0.2-1.1,0.4-1.7,0.5
		c-0.8,0.2-1.6,0.2-2.5,0.2c-1.3,0-2.4-0.2-3.3-0.6c-0.8-0.4-1.6-0.9-2.2-1.6c-0.5-0.7-1-1.4-1.2-2.3c-0.2-0.8-0.4-1.7-0.4-2.5
		c0-0.9,0.1-1.9,0.4-2.8c0.3-0.9,0.7-1.7,1.3-2.4c0.6-0.7,1.3-1.3,2.1-1.6c0.8-0.4,1.8-0.5,2.9-0.5c0.9,0,1.8,0.2,2.7,0.5
		c0.7,0.3,1.3,0.8,1.8,1.4c0.5,0.6,0.8,1.3,1,2c0.2,0.7,0.3,1.4,0.3,2.1c0,0.4,0,0.8,0,1.1c0,0.3-0.1,0.6-0.1,0.7
		c0,0.1-0.1,0.2-0.3,0.2c-0.1,0-0.3,0-0.6,0c-0.3,0-0.6,0-1,0.1C33.6,23.5,33.1,23.4,32.7,23.4z M27.2,20.9h3.7c0.4,0,0.8,0,1,0
		c0.1,0,0.3-0.1,0.4-0.1v-0.2c0-0.2,0-0.4-0.1-0.6c-0.3-1-1.2-1.6-2.3-1.6c-1-0.1-1.9,0.5-2.3,1.3C27.4,20,27.2,20.4,27.2,20.9
		L27.2,20.9z"/>
</g>
</svg>
