<?xml version="1.0" encoding="utf-8"?>
<!-- Generator: Adobe Illustrator 24.2.3, SVG Export Plug-In . SVG Version: 6.00 Build 0)  -->
<svg version="1.1" id="Layer_1" xmlns="http://www.w3.org/2000/svg" xmlns:xlink="http://www.w3.org/1999/xlink" x="0px" y="0px"
	 viewBox="0 0 42 42" style="enable-background:new 0 0 42 42;" xml:space="preserve">
<style type="text/css">
	.st0{fill:#001E36;}
	.st1{fill:#31A8FF;}
	.st2{fill:#330000;}
	.st3{fill:#FF9A00;}
</style>
<rect x="0" y="0" class="st2" width="42" height="42.2"/>
<g>
	<path class="st2" d="M8,1.3H34c3.9,0,7.1,3.2,7.1,7.1v25.1c0,3.9-3.2,7.1-7.1,7.1H8c-3.9,0-7.1-3.2-7.1-7.1V8.5
		C0.8,4.5,4,1.3,8,1.3z"/>
	<g>
		<path class="st3" d="M20.3,24.9H14l-1.3,3.9c0,0.1-0.2,0.3-0.3,0.2H9.3c-0.2,0-0.2-0.1-0.2-0.3l5.4-15.6c0-0.2,0.1-0.3,0.2-0.6
			c0.1-0.3,0.1-0.7,0.1-1.1c0-0.1,0-0.2,0.1-0.2h4.4c0.1,0,0.2,0,0.2,0.1l6.1,17.3c0,0.2,0,0.3-0.2,0.3H22c-0.1,0-0.2-0.1-0.3-0.2
			L20.3,24.9z M15.1,21.5h4.3c-0.1-0.3-0.2-0.8-0.4-1.2c-0.1-0.4-0.3-1-0.4-1.4c-0.2-0.5-0.3-1-0.5-1.5c-0.2-0.5-0.3-1-0.4-1.5
			c-0.1-0.5-0.3-0.9-0.3-1.3h0c-0.1,0.7-0.3,1.4-0.6,2.2c-0.3,0.8-0.5,1.7-0.8,2.5C15.5,20,15.3,20.8,15.1,21.5L15.1,21.5z
			 M29.4,14.3c-0.6,0-1.1-0.2-1.5-0.6c-0.4-0.4-0.6-1-0.6-1.5s0.2-1.1,0.6-1.5s1-0.6,1.5-0.6c0.7,0,1.2,0.2,1.5,0.6
			c0.3,0.4,0.6,1,0.6,1.5c0,0.6-0.2,1.1-0.6,1.5C30.5,14.1,30,14.3,29.4,14.3L29.4,14.3z M27.5,28.9V15.9c0-0.2,0.1-0.2,0.2-0.2h3.3
			c0.1,0,0.2,0.1,0.2,0.2v12.9c0,0.2-0.1,0.3-0.2,0.3h-3.3C27.6,29.2,27.5,29.1,27.5,28.9z"/>
	</g>
</g>
</svg>
