<?xml version="1.0" encoding="utf-8"?>
<!-- Generator: Adobe Illustrator 24.2.3, SVG Export Plug-In . SVG Version: 6.00 Build 0)  -->
<svg version="1.1" id="Layer_1" xmlns="http://www.w3.org/2000/svg" xmlns:xlink="http://www.w3.org/1999/xlink" x="0px" y="0px"
	 viewBox="0 0 42 42" style="enable-background:new 0 0 42 42;" xml:space="preserve">
<style type="text/css">
	.st0{fill:#001E36;}
	.st1{fill:#31A8FF;}
	.st2{fill:#330000;}
	.st3{fill:#FF9A00;}
	.st4{fill:#00005B;}
	.st5{fill:#9999FF;}
	.st6{fill:#1C3A4E;}
	.st7{fill-rule:evenodd;clip-rule:evenodd;fill:#1C3A4E;}
	.st8{fill:#FFFFFF;}
	.st9{fill:#55E5C5;}
	.st10{fill-rule:evenodd;clip-rule:evenodd;fill:#7D2AE7;}
	.st11{fill-rule:evenodd;clip-rule:evenodd;fill:url(#SVGID_1_);}
	.st12{fill-rule:evenodd;clip-rule:evenodd;fill:url(#SVGID_2_);}
	.st13{fill-rule:evenodd;clip-rule:evenodd;fill:url(#SVGID_3_);}
	.st14{fill-rule:evenodd;clip-rule:evenodd;fill:url(#SVGID_4_);}
	.st15{fill:#FEFEFE;}
	.st16{fill:#1AA3CE;}
	.st17{fill:#13A9D2;}
	.st18{fill:#02C1CA;}
	.st19{fill:#3583D7;}
	.st20{fill:#3081DB;}
	.st21{fill:#238BDC;}
	.st22{fill:#327CDD;}
	.st23{fill:#5458E1;}
	.st24{fill:#4471D9;}
</style>
<g transform="matrix(.26718 0 0 .26718 0 0)">
	<circle class="st10" cx="78.6" cy="78.6" r="119.6"/>
	
		<radialGradient id="SVGID_1_" cx="-457.2659" cy="163.2618" r="0.1259" gradientTransform="matrix(255.4228 -298.1754 -298.1754 -255.4228 165481.9063 -94473.5938)" gradientUnits="userSpaceOnUse">
		<stop  offset="0" style="stop-color:#6420FF"/>
		<stop  offset="1" style="stop-color:#6420FF;stop-opacity:0"/>
	</radialGradient>
	<circle class="st11" cx="78.6" cy="78.6" r="119.6"/>
	
		<radialGradient id="SVGID_2_" cx="-460.8209" cy="161.2076" r="0.1259" gradientTransform="matrix(255.8274 361.3582 361.3582 -255.8274 59659.2734 207748.875)" gradientUnits="userSpaceOnUse">
		<stop  offset="0" style="stop-color:#00C4CC"/>
		<stop  offset="1" style="stop-color:#00C4CC;stop-opacity:0"/>
	</radialGradient>
	<circle class="st12" cx="78.6" cy="78.6" r="119.6"/>
	
		<radialGradient id="SVGID_3_" cx="-457.4102" cy="166.5399" r="0.1259" gradientTransform="matrix(273.3251 -275.1954 -126.5661 -125.7058 146105.2031 -104771.1406)" gradientUnits="userSpaceOnUse">
		<stop  offset="0" style="stop-color:#6420FF"/>
		<stop  offset="1" style="stop-color:#6420FF;stop-opacity:0"/>
	</radialGradient>
	<circle class="st13" cx="78.6" cy="78.6" r="119.6"/>
	
		<radialGradient id="SVGID_4_" cx="-461.2391" cy="160.7441" r="0.1259" gradientTransform="matrix(159.239 366.571 614.0892 -266.7608 -25207.1094 211948.2813)" gradientUnits="userSpaceOnUse">
		<stop  offset="0" style="stop-color:#00C4CC;stop-opacity:0.73"/>
		<stop  offset="0" style="stop-color:#00C4CC"/>
		<stop  offset="1" style="stop-color:#00C4CC;stop-opacity:0"/>
	</radialGradient>
	<circle class="st14" cx="78.6" cy="78.6" r="119.6"/>
</g>
<g>
	<path class="st15" d="M37.8,23.2c0-0.1-0.1-0.2-0.2-0.2c-0.1,0-0.1,0.1-0.2,0.2c-0.1,0.2-0.1,0.4-0.3,0.6c-0.2,0.3-0.3,0.6-0.6,0.8
		c-0.2,0.1-0.4,0.1-0.5-0.1c0-0.1,0-0.2,0-0.2c0,0,0,0,0,0v0c0-0.1,0-0.1,0-0.2c0-0.1,0-0.1,0-0.2c0,0,0,0,0-0.1c0,0,0,0,0-0.1
		c0-0.1,0-0.2,0-0.3c0,0,0-0.1,0-0.1c0.1-0.8,0.3-1.6,0.5-2.4c0.1-0.3,0.2-0.7,0.3-1c0.1-0.4-0.1-0.5-0.4-0.6c-0.4,0-0.7,0.2-1,0.5
		c-0.1,0.1-0.2,0.3-0.3,0.4c-0.1-0.3-0.2-0.5-0.4-0.6c-0.1-0.1-0.3-0.2-0.4-0.2c-0.4-0.1-0.8,0-1.2,0.2c-0.5,0.2-0.8,0.6-1.2,1
		c-0.2,0.3-0.5,0.5-0.8,0.7c-0.2,0.1-0.5,0.2-0.8,0.1c-0.1,0-0.1,0,0-0.1c0.1-0.3,0.2-0.6,0.3-1c0.1-0.3,0.1-0.6,0.1-0.9
		c0-0.3,0-0.5-0.2-0.8c-0.1-0.2-0.3-0.4-0.5-0.4c-0.1,0-0.1,0-0.2,0c-0.1,0-0.2,0-0.3,0c0,0,0,0-0.1,0c-0.3,0-0.6,0.2-0.8,0.5
		c-0.3,0.4-0.5,0.9-0.4,1.4c0,0.1,0,0.1,0,0.2c0,0,0,0,0,0.1c0,0.3,0.1,0.5,0.2,0.8c0.1,0.3,0.3,0.5,0.6,0.6c0.1,0,0.1,0.1,0,0.2
		c-0.1,0.1-0.1,0.2-0.1,0.3c-0.3,0.5-0.6,1.1-1,1.6c-0.1,0.2-0.2,0.3-0.4,0.4c-0.1,0.1-0.2,0-0.3-0.1c0-0.1,0-0.1-0.1-0.2
		c-0.1-0.4-0.2-0.9-0.2-1.3c0-0.2,0-0.4,0-0.6c0-0.2,0-0.3,0-0.5c0-0.1,0-0.1,0-0.2c0-0.2,0-0.4,0-0.6c0-0.2,0-0.3,0-0.5
		c0-0.2,0-0.4,0.1-0.7c0-0.2,0-0.3-0.2-0.3c-0.6-0.1-1.1,0.1-1.3,0.7c-0.1,0.3-0.2,0.6-0.2,0.9c0,0.3,0,0.6-0.1,0.9
		c-0.1,0.1-0.1,0.2-0.1,0.3c-0.2,0.6-0.5,1.2-0.9,1.7c-0.2,0.2-0.3,0.3-0.5,0.4c-0.2,0.1-0.3,0-0.4-0.2c0-0.1-0.1-0.3,0-0.4
		c0-0.2,0-0.4,0.1-0.5c0,0,0-0.1,0-0.1c0-0.3,0.2-0.7,0.2-1c0.1-0.5,0.2-1,0.2-1.6c0-0.5-0.2-0.8-0.7-1c-0.4-0.1-0.7,0-1,0.2
		c-0.2,0.1-0.4,0.3-0.6,0.4c-0.4,0.4-0.8,0.9-1.1,1.4c-0.1,0.1-0.2,0.3-0.2,0.4c0-0.2,0.1-0.4,0.1-0.6c0.1-0.4,0.1-0.8,0-1.2
		c0-0.3-0.2-0.5-0.5-0.5c-0.2,0-0.4,0-0.6,0.1c-0.2,0.1-0.3,0.2-0.2,0.4c0,0.2,0,0.5,0,0.7c-0.1,0.8-0.4,1.6-0.7,2.3
		c-0.2,0.5-0.4,0.9-0.8,1.3c-0.2,0.2-0.4,0.3-0.6,0.4c-0.1,0-0.3,0-0.3-0.2c0-0.1-0.1-0.2-0.1-0.3c0-0.4,0-0.8,0.1-1.1
		c0.2-0.9,0.4-1.9,0.7-2.8c0-0.1,0.1-0.3,0.1-0.4c0-0.2-0.1-0.3-0.3-0.4c-0.1,0-0.3,0-0.4,0c-0.4,0.1-0.6,0.3-0.8,0.6
		c-0.1,0.1-0.1,0.2-0.2,0.3c0,0,0-0.1,0-0.1c-0.1-0.4-0.4-0.7-0.8-0.8c-0.4-0.1-0.8,0-1.2,0.2c-0.7,0.4-1.1,1-1.5,1.6
		c-0.2,0.4-0.3,0.8-0.5,1.2c-0.3,0.7-0.7,1.3-1.2,1.9c-0.6,0.6-1.2,1-2.1,1.1c-1,0.1-1.9-0.4-2.3-1.3c-0.2-0.6-0.3-1.2-0.4-1.8
		c0-1,0.1-1.9,0.5-2.8c0.1-0.4,0.3-0.7,0.6-1.1c0.1-0.1,0.2-0.3,0.3-0.4c0,0,0.1-0.1,0.1-0.1c0,0,0.1-0.1,0.1-0.1
		c0.2-0.3,0.5-0.5,0.8-0.7c0,0,0,0,0.1,0c0.1-0.1,0.2-0.1,0.3-0.2c0.1,0,0.1-0.1,0.2-0.1h0c0,0,0,0,0,0c0.1,0,0.1-0.1,0.2-0.1
		c0,0,0,0,0.1,0c0,0,0,0,0,0c0,0,0,0,0,0c0.1,0,0.2-0.1,0.3-0.1c0.2,0,0.4,0,0.6,0h0c0,0,0,0,0,0c0,0,0.1,0,0.1,0c0,0,0,0,0,0
		c0.1,0.1,0.3,0.1,0.4,0.3c0.1,0.1,0.1,0.2,0.2,0.3c0,0,0,0.1,0,0.1c0,0.1,0,0.2,0,0.2c0,0.3,0,0.5,0,0.8c-0.1,0.3-0.2,0.6-0.4,0.9
		c-0.1,0.1-0.1,0.2-0.1,0.3c0,0.1,0.1,0.2,0.2,0.2c0.1,0,0.2,0,0.3,0c0.3-0.1,0.5-0.2,0.7-0.4c0.3-0.3,0.6-0.7,0.7-1.2
		c0-0.2,0.1-0.3,0.1-0.5c0-0.2,0-0.4-0.1-0.6c-0.1-0.2-0.2-0.4-0.3-0.6c-0.1-0.2-0.3-0.3-0.5-0.4c-0.1,0-0.2-0.1-0.2-0.1
		c-0.6-0.3-1.3-0.3-2-0.3c-1,0.1-1.9,0.6-2.7,1.3c-0.3,0.3-0.6,0.6-0.9,0.9C5.5,17.9,5.5,18,5.4,18c-0.2,0.2-0.3,0.4-0.4,0.6
		c0,0.1-0.1,0.2-0.1,0.3c0,0.1,0,0.1-0.1,0.2c0,0,0,0,0,0c0,0,0,0.1,0,0.1c0,0,0,0.1,0,0.1c-0.3,0.7-0.5,1.5-0.5,2.3
		c0,0.8,0,1.6,0.3,2.3c0.2,0.4,0.3,0.8,0.6,1.2c0.1,0.1,0.2,0.2,0.3,0.3h0c0.1,0.2,0.3,0.3,0.5,0.4c0,0,0,0,0,0
		c0.2,0.1,0.4,0.3,0.7,0.3h0l0,0c0.2,0.1,0.4,0.1,0.6,0.1c0.9,0.2,1.7,0,2.5-0.4c0.9-0.5,1.5-1.2,2-2.1c0,0,0-0.1,0.1-0.1
		c0,0.3,0.1,0.7,0.2,1c0.3,0.6,0.7,0.9,1.3,0.9c0.6,0,1-0.3,1.4-0.7c0.1-0.2,0.3-0.3,0.4-0.5c0,0.2,0.1,0.3,0.2,0.4
		c0.2,0.5,0.6,0.8,1.2,0.8c0.4,0,0.7-0.2,1-0.4c0.3-0.2,0.5-0.5,0.7-0.8c0,0,0-0.1,0.1-0.1c0,0.1,0,0.2,0,0.2c0,0.2,0,0.4,0.1,0.6
		c0.1,0.2,0.3,0.3,0.5,0.4c0.1,0,0.3,0,0.4,0c0.1,0,0.2-0.1,0.3-0.3c0.3-1.2,0.8-2.3,1.4-3.3c0.2-0.4,0.5-0.7,0.8-1
		c0.1,0,0.1-0.1,0.2-0.1c0.1,0,0.2,0,0.2,0.1c0,0.1,0,0.2,0,0.2c0,0.4-0.1,0.8-0.2,1.2c-0.1,0.4-0.2,0.7-0.2,1.1c0,0,0,0.1,0,0.1
		c0,0.4,0,0.8,0.1,1.2c0.2,0.5,0.5,0.7,1,0.8c0.4,0,0.7-0.1,1-0.3c0.5-0.4,0.8-0.9,1.1-1.4c0.1-0.3,0.3-0.5,0.4-0.8
		c0-0.1,0.1-0.2,0.1-0.3c0.1,0.5,0.1,0.9,0.3,1.4c0.1,0.4,0.2,0.8,0.5,1.1c0.2,0.3,0.5,0.4,0.9,0.3c0.1,0,0.1-0.1,0.2-0.1
		c0.3-0.2,0.6-0.4,0.8-0.7c0.7-0.8,1.3-1.6,1.8-2.6c0-0.1,0.1-0.1,0.2-0.1c0.4,0,0.7,0,1-0.2c0.1,0,0.1-0.1,0.2-0.1c0,0,0,0,0,0
		c0,0,0,0.1,0,0.1c-0.3,0.7-0.3,1.5-0.2,2.2c0.1,0.6,0.3,1.1,0.9,1.4c0,0.1,0.1,0.1,0.2,0.1c0.1,0,0.1,0,0.2,0c0,0.1,0.1,0,0.1,0
		c0.1,0,0.2,0,0.3,0c0,0,0.1,0,0.1,0c0.5-0.1,0.9-0.3,1.2-0.7c0.1-0.1,0.2-0.2,0.3-0.4c0,0,0.1-0.1,0.1,0c0,0,0,0.1,0.1,0.1
		c0,0.1,0,0.1,0.1,0.2c0.2,0.5,0.7,0.8,1.3,0.7c1-0.1,1.8-1,1.9-1.8C37.8,23.5,37.8,23.3,37.8,23.2z M14.7,24
		c-0.1,0.2-0.2,0.3-0.4,0.4c-0.3,0.3-0.7,0.2-0.9-0.3c-0.1-0.2-0.1-0.5-0.1-0.8c0.1-0.9,0.3-1.8,0.9-2.6c0.2-0.2,0.4-0.4,0.6-0.5
		c0.3-0.1,0.4,0,0.6,0.2c0.1,0.2,0.1,0.5,0.1,0.8C15.5,22.3,15.2,23.2,14.7,24z M30,19.8c0,0.4-0.1,0.8-0.2,1.1c0,0,0,0.1,0,0.1
		c0,0-0.1,0-0.1-0.1c-0.2-0.3-0.3-0.7-0.3-1.1c0-0.2,0-0.4,0.1-0.6c0,0,0-0.1,0-0.1c0.1-0.1,0.1-0.2,0.3-0.1c0.1,0,0.2,0.1,0.2,0.2
		C30,19.4,30,19.6,30,19.8z M33.9,24.1c-0.1,0.1-0.2,0.3-0.3,0.4c-0.3,0.2-0.6,0.1-0.8-0.2c-0.1-0.2-0.1-0.4-0.2-0.7
		c0-0.8,0.2-1.4,0.5-2.1c0.2-0.4,0.4-0.7,0.7-1c0.1-0.1,0.2-0.2,0.4-0.2c0.3-0.1,0.5,0,0.6,0.3c0.1,0.2,0.1,0.5,0.1,0.7
		C34.8,22.3,34.5,23.3,33.9,24.1z"/>
	<path class="st16" d="M10.8,17c0.1,0.3,0.1,0.6,0.1,0.9c0,0.4-0.2,0.8-0.4,1.1c-0.1,0.1-0.1,0.2-0.1,0.3c0,0.1,0.1,0.2,0.2,0.2
		c0.2,0,0.4,0,0.6-0.1c0.6-0.4,0.9-0.9,1-1.6c0-0.3,0-0.6-0.1-0.8c0.1,0.1,0.1,0.3,0.1,0.4c0,0.4,0,0.8-0.2,1.1
		c-0.1,0.3-0.3,0.5-0.6,0.8c-0.2,0.2-0.4,0.2-0.6,0.3c-0.1,0-0.3,0-0.4,0c-0.1,0-0.1-0.1-0.1-0.2c0-0.1,0-0.2,0.1-0.4
		c0.2-0.3,0.4-0.7,0.4-1.1c0-0.3,0-0.5,0-0.8C10.8,17.1,10.8,17.1,10.8,17z"/>
	<path class="st16" d="M9.1,16.5c0.4-0.2,0.8-0.2,1.3,0c0.2,0.1,0.4,0.3,0.5,0.5c0,0-0.1,0-0.1-0.1c-0.1-0.3-0.4-0.4-0.7-0.5
		c-0.3,0-0.6,0-0.8,0.1C9.2,16.5,9.1,16.5,9.1,16.5z"/>
	<path class="st16" d="M7.2,18c0.2-0.2,0.4-0.5,0.6-0.6C8,17.2,8.1,17.1,8.2,17c-0.1,0.1-0.3,0.2-0.4,0.4c-0.2,0.2-0.3,0.3-0.5,0.5
		C7.3,17.9,7.3,18,7.2,18z"/>
	<path class="st16" d="M12.2,17c-0.1-0.3-0.3-0.6-0.5-0.8c-0.1-0.1-0.2-0.1-0.3-0.2c0.1,0,0.2,0.1,0.3,0.2c0.2,0.2,0.4,0.4,0.5,0.7
		C12.2,16.9,12.2,17,12.2,17z"/>
	<path class="st17" d="M5.4,18c-0.2,0.3-0.4,0.6-0.5,0.9c0-0.1,0-0.2,0.1-0.2c0.1-0.2,0.2-0.3,0.3-0.5C5.3,18.1,5.3,18.1,5.4,18z"/>
	<path class="st18" d="M11.8,16C11.8,16.1,11.7,16.1,11.8,16C11.7,16.1,11.7,16.1,11.8,16c-0.1,0-0.2,0-0.2-0.1c0,0-0.1,0,0-0.1
		c0,0,0,0,0.1,0C11.6,15.9,11.6,15.9,11.8,16C11.7,15.9,11.8,16,11.8,16z"/>
	<path class="st18" d="M6.7,16.4C6.7,16.4,6.7,16.3,6.7,16.4c-0.1-0.1-0.1-0.1,0-0.1c0,0,0.1,0,0.1-0.1c0,0,0,0,0,0c0,0,0,0,0,0.1
		C6.9,16.3,6.8,16.3,6.7,16.4z"/>
	<path class="st18" d="M10.7,15.5C10.8,15.5,10.8,15.6,10.7,15.5c0.1,0.1,0,0.1,0,0.1c0,0-0.1,0-0.1-0.1
		C10.6,15.5,10.7,15.5,10.7,15.5z"/>
	<path class="st18" d="M11.1,15.8c0-0.1,0-0.1,0-0.2c0,0,0-0.1,0-0.1c0,0,0.1,0,0.1,0c0,0,0,0.1,0,0.1
		C11.2,15.7,11.1,15.7,11.1,15.8z"/>
	<path class="st18" d="M8.4,15.7C8.4,15.7,8.4,15.7,8.4,15.7c0,0.1,0,0.1-0.1,0.1c0,0-0.1,0,0,0C8.2,15.7,8.3,15.7,8.4,15.7z"/>
	<path class="st18" d="M7.4,16C7.4,16,7.4,16,7.4,16c-0.1-0.1,0-0.1,0-0.1C7.5,15.9,7.5,15.9,7.4,16C7.5,16,7.5,16,7.4,16z"/>
	<path class="st16" d="M7,18.4C7,18.2,7.1,18.1,7.2,18C7.2,18.1,7.1,18.3,7,18.4z"/>
	<path class="st18" d="M6.4,16.6C6.4,16.6,6.5,16.6,6.4,16.6c0.1,0.1,0,0.2,0,0.1C6.3,16.7,6.4,16.7,6.4,16.6
		C6.4,16.6,6.4,16.6,6.4,16.6z"/>
	<path class="st16" d="M8.3,17c0.1-0.1,0.2-0.1,0.3-0.2C8.5,16.9,8.4,16.9,8.3,17z"/>
	<path class="st17" d="M5.6,17.8C5.5,17.9,5.5,18,5.4,18C5.4,17.9,5.5,17.8,5.6,17.8z"/>
	<path class="st18" d="M6.5,16.5C6.5,16.5,6.5,16.5,6.5,16.5C6.5,16.5,6.5,16.5,6.5,16.5C6.5,16.5,6.5,16.5,6.5,16.5
		C6.5,16.5,6.5,16.5,6.5,16.5z"/>
	<path class="st16" d="M8.6,16.8c0.1,0,0.1-0.1,0.2-0.1C8.7,16.7,8.7,16.8,8.6,16.8z"/>
	<path class="st16" d="M8.8,16.7c0.1,0,0.1-0.1,0.2-0.1C8.9,16.6,8.9,16.7,8.8,16.7z"/>
	<path class="st17" d="M4.8,19.1c0,0.1,0,0.1-0.1,0.2C4.7,19.2,4.7,19.1,4.8,19.1z"/>
	<path class="st18" d="M11.9,15.9C11.8,15.9,11.8,15.9,11.9,15.9C11.8,15.9,11.8,15.9,11.9,15.9C11.8,15.9,11.8,15.8,11.9,15.9
		C11.8,15.8,11.9,15.9,11.9,15.9z"/>
	<path class="st17" d="M4.9,18.9c0,0.1,0,0.1-0.1,0.2C4.8,19,4.8,18.9,4.9,18.9z"/>
	<path class="st18" d="M12.4,17.2C12.4,17.3,12.4,17.3,12.4,17.2C12.4,17.3,12.4,17.3,12.4,17.2z"/>
	<path class="st18" d="M12.1,16.4C12.1,16.4,12,16.4,12.1,16.4C12,16.4,12,16.3,12.1,16.4C12,16.3,12,16.3,12.1,16.4
		C12,16.3,12.1,16.3,12.1,16.4z"/>
	<path class="st18" d="M7.2,16.1C7.2,16.1,7.2,16.2,7.2,16.1C7.2,16.2,7.2,16.2,7.2,16.1C7.2,16.2,7.2,16.2,7.2,16.1
		C7.2,16.1,7.2,16.1,7.2,16.1z"/>
	<path class="st19" d="M30.6,18.6c-0.1-0.2-0.3-0.4-0.5-0.4C30.3,18.2,30.6,18.5,30.6,18.6z"/>
	<path class="st16" d="M25.9,19.6C25.9,19.6,25.9,19.7,25.9,19.6c-0.1,0.1-0.1,0-0.1,0C25.8,19.6,25.8,19.5,25.9,19.6
		C25.9,19.5,25.9,19.5,25.9,19.6z"/>
	<path class="st19" d="M30,18.2c-0.1,0-0.2,0-0.3,0C29.8,18.2,29.9,18.2,30,18.2z"/>
	<path class="st16" d="M25.7,19.6C25.7,19.6,25.6,19.7,25.7,19.6C25.6,19.6,25.6,19.6,25.7,19.6C25.6,19.6,25.6,19.6,25.7,19.6
		C25.6,19.6,25.7,19.6,25.7,19.6z"/>
	<path class="st20" d="M28.4,20.1c0,0.1,0,0.1,0,0.2C28.4,20.2,28.4,20.2,28.4,20.1z"/>
	<path class="st21" d="M22.1,25.3C22.1,25.3,22,25.3,22.1,25.3c-0.1-0.1,0-0.1,0-0.1C22.1,25.2,22.2,25.2,22.1,25.3
		C22.2,25.3,22.1,25.3,22.1,25.3z"/>
	<path class="st22" d="M26.7,25.5C26.7,25.6,26.7,25.6,26.7,25.5C26.7,25.6,26.7,25.6,26.7,25.5C26.7,25.6,26.6,25.6,26.7,25.5
		C26.6,25.6,26.7,25.5,26.7,25.5z"/>
	<path class="st23" d="M32,25.4c0.1,0,0.1,0,0.2,0.1C32.1,25.5,32,25.5,32,25.4z"/>
	<path class="st22" d="M27,25.6C27,25.7,27,25.7,27,25.6C26.9,25.7,26.9,25.6,27,25.6C26.9,25.6,26.9,25.6,27,25.6
		C27,25.6,27,25.6,27,25.6z"/>
	<path class="st21" d="M5.9,25.9c0.2,0.1,0.4,0.2,0.7,0.3c-0.1,0-0.2,0-0.3-0.1C6.1,26,6,26,5.9,25.9z"/>
	<path class="st21" d="M5.4,25.5c0.2,0.1,0.3,0.3,0.5,0.4c-0.1,0-0.2-0.1-0.2-0.2C5.5,25.6,5.4,25.6,5.4,25.5z"/>
	<path class="st21" d="M6.1,26.4C6.1,26.4,6.2,26.4,6.1,26.4c0.1,0.1,0,0.1,0,0.1C6.1,26.5,6,26.5,6.1,26.4
		C6,26.4,6.1,26.4,6.1,26.4z"/>
	<path class="st21" d="M5.1,25.2c0.1,0.1,0.2,0.2,0.3,0.3C5.3,25.4,5.2,25.3,5.1,25.2z"/>
	<path class="st21" d="M5.8,26C5.8,26,5.8,26,5.8,26C5.8,26,5.8,26,5.8,26C5.8,26,5.8,26,5.8,26C5.8,26,5.8,26,5.8,26z"/>
	<path class="st24" d="M36,24.3c0-0.2,0-0.3,0-0.5C36,23.9,36,24.1,36,24.3z"/>
	<path class="st23" d="M36.5,25.5C36.5,25.5,36.4,25.5,36.5,25.5c-0.1,0.1-0.1,0-0.1,0C36.3,25.5,36.4,25.4,36.5,25.5
		C36.4,25.4,36.4,25.4,36.5,25.5z"/>
	<path class="st23" d="M36.8,25.3c0-0.1,0.1-0.1,0.2-0.1C37,25.2,36.9,25.2,36.8,25.3z"/>
	<path class="st23" d="M36.8,25.3C36.7,25.4,36.7,25.4,36.8,25.3C36.7,25.4,36.7,25.4,36.8,25.3C36.7,25.3,36.7,25.3,36.8,25.3z"/>
	<path class="st19" d="M34.5,19.3C34.5,19.3,34.6,19.3,34.5,19.3C34.6,19.4,34.6,19.4,34.5,19.3C34.5,19.4,34.5,19.4,34.5,19.3
		C34.5,19.3,34.5,19.3,34.5,19.3z"/>
	<path class="st19" d="M34.1,19.3C34.1,19.3,34.1,19.3,34.1,19.3C34.1,19.2,34.1,19.2,34.1,19.3C34.1,19.2,34.2,19.2,34.1,19.3
		C34.2,19.3,34.1,19.3,34.1,19.3z"/>
</g>
</svg>
