<?xml version="1.0" encoding="utf-8"?>
<!-- Generator: Adobe Illustrator 24.2.3, SVG Export Plug-In . SVG Version: 6.00 Build 0)  -->
<svg version="1.1" id="Layer_1" xmlns="http://www.w3.org/2000/svg" xmlns:xlink="http://www.w3.org/1999/xlink" x="0px" y="0px"
	 viewBox="0 0 42 42" style="enable-background:new 0 0 42 42;" xml:space="preserve">
<style type="text/css">
	.st0{fill:#001E36;}
	.st1{fill:#31A8FF;}
	.st2{fill:#330000;}
	.st3{fill:#FF9A00;}
	.st4{fill:#00005B;}
	.st5{fill:#02C1CA;}
	.st6{fill:#742BEA;}
	.st7{fill:#06BACD;}
	.st8{fill:#1AA3CE;}
	.st9{fill:#5836F6;}
	.st10{fill:#4258EB;}
	.st11{fill:#2696D4;}
	.st12{fill:#238BDC;}
	.st13{fill:#327CDD;}
	.st14{fill:#5E4EE1;}
	.st15{fill:#3A79DA;}
	.st16{fill:#3583D7;}
	.st17{fill:#13A9D2;}
	.st18{fill:#4471D9;}
	.st19{fill:#5957DE;}
	.st20{fill:#387FD7;}
	.st21{fill:#FEFEFE;}
	.st22{fill:#5458E1;}
	.st23{fill:#3081DB;}
	.st24{fill:#2989DA;}
	.st25{fill:#16A3D5;}
	.st26{fill:#4172DA;}
	.st27{fill:#298ED6;}
	.st28{fill:#9999FF;}
	.st29{fill:#1C3A4E;}
	.st30{fill-rule:evenodd;clip-rule:evenodd;fill:#1C3A4E;}
	.st31{fill:#FFFFFF;}
	.st32{fill:#55E5C5;}
</style>
<rect y="-0.1" class="st29" width="42" height="42.2"/>
<g>
	<path class="st30" d="M12.6,5.5h16.8c3.9,0,7.1,3.2,7.1,7.1v16.8c0,3.9-3.2,7.1-7.1,7.1H12.6c-3.9,0-7.1-3.2-7.1-7.1V12.6
		C5.5,8.7,8.7,5.5,12.6,5.5z"/>
	<path class="st31" d="M17.1,19.4l-4.2-4.2l5.2-5.2l5.2,5.2l-6,6l0,0C17.7,20.6,17.6,19.9,17.1,19.4z"/>
	<polygon class="st32" points="29.1,21 18.1,32 12.9,26.8 23.9,15.8 29.1,21 	"/>
</g>
</svg>
