<?xml version="1.0" encoding="utf-8"?>
<!-- Generator: Adobe Illustrator 24.2.3, SVG Export Plug-In . SVG Version: 6.00 Build 0)  -->
<svg version="1.1" id="Layer_1" xmlns="http://www.w3.org/2000/svg" xmlns:xlink="http://www.w3.org/1999/xlink" x="0px" y="0px"
	 viewBox="0 0 42 42" style="enable-background:new 0 0 42 42;" xml:space="preserve">
<style type="text/css">
	.st0{fill:#001E36;}
	.st1{fill:#31A8FF;}
	.st2{fill:#330000;}
	.st3{fill:#FF9A00;}
	.st4{fill:#00005B;}
	.st5{fill:#02C1CA;}
	.st6{fill:#742BEA;}
	.st7{fill:#06BACD;}
	.st8{fill:#1AA3CE;}
	.st9{fill:#5836F6;}
	.st10{fill:#4258EB;}
	.st11{fill:#2696D4;}
	.st12{fill:#238BDC;}
	.st13{fill:#327CDD;}
	.st14{fill:#5E4EE1;}
	.st15{fill:#3A79DA;}
	.st16{fill:#3583D7;}
	.st17{fill:#13A9D2;}
	.st18{fill:#4471D9;}
	.st19{fill:#5957DE;}
	.st20{fill:#387FD7;}
	.st21{fill:#FEFEFE;}
	.st22{fill:#5458E1;}
	.st23{fill:#3081DB;}
	.st24{fill:#2989DA;}
	.st25{fill:#16A3D5;}
	.st26{fill:#4172DA;}
	.st27{fill:#298ED6;}
	.st28{fill:#9999FF;}
</style>
<rect y="-0.1" class="st4" width="42" height="42.2"/>
<g>
	<path class="st4" d="M7.6,0.8h26.8c4,0,7.3,3.3,7.3,7.3c0,0,0,0,0,0v25.7c0,4-3.3,7.3-7.3,7.3c0,0,0,0,0,0H7.6
		c-4,0-7.3-3.3-7.3-7.3c0,0,0,0,0,0V8.1C0.3,4.1,3.6,0.8,7.6,0.8C7.6,0.8,7.6,0.8,7.6,0.8z"/>
	<path class="st28" d="M10.1,29.1V11.4c0-0.1,0.1-0.2,0.2-0.2c0.3,0,0.6,0,1,0c0.4,0,0.8,0,1.3,0c0.5,0,1,0,1.5,0s1.1,0,1.6,0
		c1.4,0,2.6,0.2,3.6,0.5c0.9,0.3,1.7,0.8,2.3,1.4c0.6,0.6,1,1.2,1.3,2c0.3,0.7,0.4,1.5,0.4,2.2c0,1.5-0.3,2.7-1,3.7
		c-0.7,1-1.7,1.7-2.8,2.1c-1.2,0.4-2.5,0.6-3.9,0.6c-0.4,0-0.7,0-0.9,0c-0.2,0-0.4,0-0.7,0v5.5c0,0.1-0.1,0.2-0.2,0.2c0,0,0,0,0,0
		h-3.4C10.2,29.4,10.1,29.3,10.1,29.1z M13.9,14.5v5.8c0.2,0,0.5,0,0.7,0h0.9c0.7,0,1.3-0.1,2-0.3c0.6-0.2,1-0.5,1.4-0.9
		c0.4-0.4,0.5-1,0.5-1.8c0-0.5-0.1-1.1-0.4-1.5c-0.3-0.4-0.7-0.8-1.2-1c-0.6-0.3-1.3-0.4-2-0.3c-0.4,0-0.8,0-1.2,0
		C14.4,14.5,14.1,14.5,13.9,14.5L13.9,14.5z"/>
	<path class="st28" d="M25.6,15.5h3c0.2,0,0.3,0.1,0.4,0.3c0.1,0.1,0.1,0.3,0.1,0.4c0,0.2,0.1,0.4,0.1,0.5c0,0.2,0,0.4,0,0.6
		c0.5-0.6,1.1-1.1,1.8-1.5c0.8-0.4,1.7-0.7,2.6-0.7c0.1,0,0.2,0.1,0.2,0.2c0,0,0,0,0,0v3.4c0,0.1-0.1,0.2-0.3,0.2
		c-0.6,0-1.3,0-1.9,0.2c-0.5,0.1-1,0.3-1.4,0.5c-0.3,0.2-0.6,0.4-0.9,0.6v8.8c0,0.2-0.1,0.2-0.2,0.2h-3.4c-0.1,0-0.3-0.1-0.3-0.2
		c0,0,0,0,0,0v-9.6c0-0.4,0-0.8,0-1.3c0-0.4,0-0.9,0-1.3c0-0.4,0-0.8-0.1-1.2C25.4,15.6,25.5,15.5,25.6,15.5
		C25.5,15.5,25.6,15.5,25.6,15.5L25.6,15.5z"/>
</g>
</svg>
