<?xml version="1.0" encoding="utf-8"?>
<!-- Generator: Adobe Illustrator 24.2.3, SVG Export Plug-In . SVG Version: 6.00 Build 0)  -->
<svg version="1.1" id="Layer_1" xmlns="http://www.w3.org/2000/svg" xmlns:xlink="http://www.w3.org/1999/xlink" x="0px" y="0px"
	 viewBox="0 0 42 42" style="enable-background:new 0 0 42 42;" xml:space="preserve">
<style type="text/css">
	.st0{fill:#001E36;}
	.st1{fill:#31A8FF;}
</style>
<rect x="0" y="0" class="st0" width="42" height="42.2"/>
<g>
	<path class="st0" d="M7.6,0.7h26.9c4.1,0,7.3,3.3,7.3,7.3v25.8c0,4.1-3.3,7.3-7.3,7.3H7.6c-4.1,0-7.3-3.3-7.3-7.3V8.1
		C0.2,4,3.5,0.7,7.6,0.7z"/>
	<g>
		<path class="st1" d="M9.6,29.2V11.3c0-0.1,0-0.2,0.2-0.2c0.3,0,0.6,0,1,0s0.9,0,1.3,0c0.5,0,1,0,1.5,0c0.5,0,1,0,1.6,0
			c1.4,0,2.6,0.2,3.6,0.5c0.9,0.3,1.7,0.8,2.3,1.4c0.5,0.5,1,1.2,1.3,2c0.3,0.7,0.4,1.5,0.4,2.3c0,1.5-0.4,2.7-1,3.7
			c-0.7,1-1.7,1.7-2.8,2.1c-1.2,0.5-2.5,0.6-3.9,0.6c-0.4,0-0.7,0-0.9,0s-0.4,0-0.8,0v5.5c0,0.1-0.1,0.2-0.2,0.2H9.7
			C9.6,29.4,9.6,29.4,9.6,29.2L9.6,29.2z M13.3,14.5v5.8c0.2,0,0.5,0,0.7,0h0.9c0.7,0,1.4-0.1,2-0.3c0.5-0.1,1-0.5,1.4-0.9
			c0.4-0.5,0.5-1,0.5-1.8c0-0.5-0.1-1.1-0.4-1.5c-0.3-0.5-0.7-0.8-1.2-1c-0.6-0.3-1.4-0.4-2-0.4c-0.5,0-0.9,0-1.2,0
			C13.7,14.5,13.5,14.5,13.3,14.5L13.3,14.5z M33.5,19.3c-0.5-0.3-1.1-0.5-1.7-0.6c-0.6-0.1-1.3-0.2-1.9-0.2c-0.4,0-0.7,0-1,0.1
			c-0.2,0-0.4,0.2-0.5,0.4c-0.1,0.1-0.1,0.3-0.1,0.5c0,0.1,0.1,0.3,0.2,0.5c0.1,0.2,0.4,0.4,0.6,0.5c0.4,0.2,0.8,0.4,1.2,0.6
			c0.9,0.3,1.8,0.8,2.7,1.3c0.6,0.4,1,0.9,1.4,1.4c0.3,0.5,0.4,1.2,0.4,1.8c0,0.8-0.2,1.6-0.7,2.3c-0.5,0.7-1.2,1.2-1.9,1.5
			c-0.9,0.4-1.9,0.5-3.2,0.5c-0.8,0-1.6-0.1-2.3-0.2c-0.6-0.1-1.2-0.3-1.8-0.5c-0.1-0.1-0.2-0.2-0.2-0.3v-3c0,0,0-0.1,0.1-0.1
			c0,0,0.1,0,0.1,0c0.7,0.4,1.4,0.7,2.2,0.9c0.7,0.2,1.4,0.3,2,0.3c0.7,0,1.1-0.1,1.4-0.2c0.3-0.1,0.5-0.4,0.5-0.7
			c0-0.2-0.1-0.5-0.4-0.7c-0.3-0.2-0.9-0.5-1.7-0.8c-0.9-0.3-1.7-0.7-2.5-1.3c-0.5-0.4-1-0.9-1.3-1.5c-0.3-0.5-0.4-1.2-0.4-1.8
			c0-0.8,0.2-1.4,0.6-2.1c0.5-0.7,1.1-1.3,1.8-1.6c0.8-0.4,1.8-0.6,3.1-0.6c0.7,0,1.4,0,2.2,0.1c0.5,0.1,1,0.2,1.5,0.4
			c0.1,0,0.1,0.1,0.2,0.1c0,0.1,0,0.1,0,0.2v2.8c0,0.1,0,0.1-0.1,0.2C33.6,19.3,33.5,19.3,33.5,19.3L33.5,19.3z"/>
	</g>
</g>
</svg>
